# AST/ASF file generated using VICON BodyLanguage
# -----------------------------------------------
:version 1.10
:name VICON
:units
  mass 1.0
  length 0.45
  angle deg
:documentation
   .ast/.asf automatically generated from VICON data using
   VICON BodyBuilder and BodyLanguage model FoxedUp or BRILLIANT.MOD
:root
   order TX TY TZ RX RY RZ
   axis XYZ
   position 0 0 0  
   orientation 0 0 0 
:bonedata
  begin
     id 1 
     name lhipjoint
     direction 0.655637 -0.713449 0.247245 
     length 2.52691 
     axis 0 0 0  XYZ
  end
  begin
     id 2 
     name lfemur
     direction 0.34202 -0.939693 0  
     length 7.59371  
     axis 0 0 20  XYZ
    dof rx ry rz
    limits (-160.0 20.0)
           (-70.0 70.0)
           (-60.0 70.0)
  end
  begin
     id 3 
     name ltibia
     direction 0.34202 -0.939693 0   
     length 7.28717   
     axis 0 0 20   XYZ
    dof rx
    limits (-10.0 170.0)
  end
  begin
     id 4 
     name lfoot
     direction 0.0886837 -0.243657 0.965798   
     length 2.2218   
     axis -90 7.62852e-016 20   XYZ
    dof rx rz
    limits (-45.0 90.0)
           (-70.0 20.0)
  end
  begin
     id 5 
     name ltoes
     direction 1.53547e-011 -4.22004e-011 1   
     length 1.11249   
     axis -90 7.62852e-016 20   XYZ
    dof rx
    limits (-90.0 20.0)
  end
  begin
     id 6 
     name rhipjoint
     direction -0.645062 -0.722004 0.250209   
     length 2.49697  
     axis 0 0 0  XYZ 
  end
  begin
     id 7 
     name rfemur
     direction -0.34202 -0.939693 0   
     length 7.58734   
     axis 0 0 -20   XYZ
    dof rx ry rz
    limits (-160.0 20.0)
           (-70.0 70.0)
           (-70.0 60.0)
  end
  begin
     id 8 
     name rtibia
     direction -0.34202 -0.939693 0   
     length 7.21538   
     axis 0 0 -20   XYZ
    dof rx
    limits (-10.0 170.0)
 end
 begin
     id 9 
     name rfoot
     direction -0.102907 -0.282735 0.953662   
     length 2.23735  
     axis -90 -7.62852e-016 -20   XYZ
    dof rx rz
    limits (-45.0 90.0)
           (-20.0 70.0)
  end
  begin
     id 10 
     name rtoes
     direction -1.5354e-011 -4.21751e-011 1   
     length 1.11569   
     axis -90 -7.62852e-016 -20   XYZ
    dof rx
    limits (-90.0 20.0)
  end
  begin
     id 11 
     name lowerback
     direction 0.00952301 0.997604 -0.0685217   
     length 2.05943   
     axis 0 0 0   XYZ
    dof rx ry rz
    limits (-20.0 45.0)
           (-30.0 30.0)
           (-30.0 30.0)
  end
  begin
     id 12 
     name upperback
     direction 0.00494399 0.999577 -0.0286701   
     length 2.06523   
     axis 0 0 0   XYZ
    dof rx ry rz
    limits (-20.0 45.0)
           (-30.0 30.0)
           (-30.0 30.0)
  end
  begin
     id 13 
     name thorax
     direction 0.000729686 0.999992 0.00388603   
     length 2.06807   
     axis 0 0 0   XYZ
    dof rx ry rz
    limits (-20.0 45.0)
           (-30.0 30.0)
           (-30.0 30.0)
  end
  begin
     id 14 
     name lowerneck
     direction 0.00452882 0.995459 0.0950816   
     length 1.57426   
     axis 0 0 0   XYZ
    dof rx ry rz
    limits (-20.0 45.0)
           (-30.0 30.0)
           (-30.0 30.0)
  end
  begin
     id 15 
     name upperneck
     direction 0.021922 0.997711 -0.0639762   
     length 1.56399   
     axis 0 0 0   XYZ
    dof rx ry rz
    limits (-20.0 45.0)
           (-30.0 30.0)
           (-30.0 30.0)
  end
  begin
     id 16
     name head
     direction 0.008024 0.999444 -0.0323691  
     length 1.6265  
     axis 0 0 0   XYZ
    dof rx ry rz
    limits (-20.0 45.0)
           (-30.0 30.0)
           (-30.0 30.0)
  end
  begin
     id 17 
     name lclavicle
     direction 0.967826 0.247107 -0.0474446  
     length 3.6598  
     axis 0 0 0   XYZ
    dof ry rz
    limits (-20.0 10.0)
           (0.0 20.0)
  end
  begin
     id 18 
     name lhumerus
     direction 1 -4.48971e-011 -2.90544e-027   
     length 4.86513   
     axis 180 -30 -90   XYZ
    dof rx ry rz
    limits (-60.0 90.0)
           (-90.0 90.0)
           (-90.0 90.0)
  end
  begin
     id 19
     name lradius
     direction 1 -4.48958e-011 1.79638e-026   
     length 3.35554   
     axis 180 -30 -90   XYZ
    dof rx
    limits (-10.0 170.0)
  end
  begin
     id 20
     name lwrist
     direction 1 -4.48952e-011 3.34345e-026   
     length 1.67777   
     axis -2.22354e-014 90 90   XYZ
    dof ry
    limits (-180.0 0.0)
 end
  begin
     id 21 
     name lhand
     direction 1 -4.49055e-011 6.6869e-026   
     length 0.661175   
     axis -4.26681e-014 90 90   XYZ
    dof rx rz
    limits (-90.0 90.0)
           (-45.0 45.0)
  end
  begin
     id 22 
     name lfingers
     direction 1 -4.48731e-011 1.33738e-025   
     length 0.533057   
     axis -8.53362e-014 90 90   XYZ
    dof rx
    limits (0.0 90.0)
  end
  begin
     id 23
     name lthumb
     direction 0.707107 -6.35005e-011 0.707107   
     length 0.765366   
     axis -90 45 2.85299e-015   XYZ
    dof rx rz
    limits (-45.0 45.0)
           (-45.0 45.0)
  end
  begin
     id 24 
     name rclavicle
     direction -0.973174 0.211421 -0.0907389   
     length 3.59444  
     axis 0 0 0   XYZ 
    dof ry rz
    limits (-10.0 20.0)
           (-20.0 0.0)
  end
  begin
     id 25 
     name rhumerus
     direction -1 -4.48964e-011 1.56311e-027  
     length 5.02649   
     axis 180 30 90   XYZ
    dof rx ry rz
    limits (-90.0 60.0)
           (-90.0 90.0)
           (-90.0 90.0)
  end
  begin
     id 26 
     name rradius
     direction -1 -4.48948e-011 2.01724e-026   
     length 3.36431   
     axis 180 30 90   XYZ
    dof rx
    limits (-10.0 170.0)
  end
  begin
     id 27 
     name rwrist
     direction -1 -4.49008e-011 3.34345e-026   
     length 1.68216   
     axis -2.22354e-014 -90 -90   XYZ
    dof ry
    limits (-180.0 0.0)
  end
  begin
     id 28
     name rhand
     direction -1 -4.49013e-011 6.6869e-026   
     length 0.730406   
     axis -4.26681e-014 -90 -90   XYZ
    dof rx rz
    limits (-90.0 90.0)
           (-45.0 45.0)
  end
  begin
     id 29
     name rfingers
     direction -1 -4.48867e-011 1.33738e-025   
     length 0.588872   
     axis -8.53362e-014 -90 -90   XYZ
    dof rx
    limits (0.0 90.0)
  end
  begin
     id 30
     name rthumb
     direction -0.707107 -6.34907e-011 0.707107   
     length 0.845506   
     axis -90 -45 -2.85299e-015   XYZ
    dof rx rz
    limits (-45.0 45.0)
           (-45.0 45.0)
  end
:hierarchy
  begin
    root lhipjoint rhipjoint lowerback
    lhipjoint lfemur
    lfemur ltibia
    ltibia lfoot
    lfoot ltoes
    rhipjoint rfemur
    rfemur rtibia
    rtibia rfoot
    rfoot rtoes
    lowerback upperback
    upperback thorax
    thorax lowerneck lclavicle rclavicle
    lowerneck upperneck
    upperneck head
    lclavicle lhumerus
    lhumerus lradius
    lradius lwrist
    lwrist lhand lthumb
    lhand lfingers
    rclavicle rhumerus
    rhumerus rradius
    rradius rwrist
    rwrist rhand rthumb
    rhand rfingers
  end

#!OML:ASF H:\Terrain\Patient Classification 1\Takeo\Monday\TakeoMonday.ASF
:FULLY-SPECIFIED
:DEGREES
1
root 9.44554 17.861 -0.500023 -3.46503 -4.11564 -0.919335
lowerback 5.10533 -1.17664 1.60289
upperback 3.0215 -1.49964 0.880915
thorax 0.226219 -0.738674 0.0772631
lowerneck -12.7279 -5.3435 -3.95469
upperneck 3.34084 -6.71746 3.20386
head 3.63994 -3.24543 1.28297
rclavicle 2.08227e-014 -2.34566e-014
rhumerus -32.6715 3.13256 -88.1628
rradius 39.8587
rwrist -16.1297
rhand -26.9964 16.7952
rfingers 7.12502
rthumb -0.416571 -13.1841
lclavicle 2.08227e-014 -2.34566e-014
lhumerus -33.5984 1.09625 89.9233
lradius 37.8298
lwrist 25.2377
lhand -29.002 21.4338
lfingers 7.12502
lthumb -2.35362 51.4006
rfemur -0.611619 7.34161 24.134
rtibia 16.8241
rfoot -12.11 -9.0256
rtoes 3.99503
lfemur -0.928209 -3.22157 -22.2143
ltibia 21.1087
lfoot -15.2248 15.4223
ltoes -0.401242
2
root 9.44688 17.8538 -0.518179 -3.28864 -4.16502 -0.927599
lowerback 5.31274 -1.1004 1.5785
upperback 3.02961 -1.39419 0.910084
thorax 0.121616 -0.686996 0.119873
lowerneck -12.3732 -5.04792 -4.13849
upperneck 2.81483 -6.31792 3.50313
head 3.39253 -3.042 1.45816
rclavicle 1.21507e-014 -7.55382e-015
rhumerus -32.5911 3.87615 -88.4759
rradius 40.9254
rwrist -16.3693
rhand -27.2848 16.5875
rfingers 7.12502
rthumb -0.695182 -13.3911
lclavicle 1.21507e-014 -7.55382e-015
lhumerus -33.2893 0.225124 90.4138
lradius 39.1346
lwrist 25.3582
lhand -28.6247 20.9282
lfingers 7.12502
lthumb -1.98924 50.8986
rfemur -1.19436 7.51526 24.1296
rtibia 17.5061
rfoot -12.5919 -9.10949
rtoes 4.1482
lfemur -1.05777 -3.15365 -22.2017
ltibia 20.8513
lfoot -14.8774 15.5139
ltoes -0.822693
3
root 9.45155 17.8423 -0.52596 -3.16536 -4.10038 -0.660947
lowerback 5.30064 -1.07418 1.35415
upperback 3.2026 -1.37266 0.791388
thorax 0.308473 -0.676718 0.12032
lowerneck -12.6119 -4.85993 -4.06882
upperneck 2.73209 -6.06978 3.54426
head 3.39813 -2.91418 1.47423
rclavicle -1.61264e-014 1.0138e-014
rhumerus -32.1326 4.45251 -88.9201
rradius 41.7612
rwrist -16.653
rhand -27.4507 17.3897
rfingers 7.12502
rthumb -0.855401 -12.5883
lclavicle -1.61264e-014 1.0138e-014
lhumerus -32.9062 -0.628745 90.7418
lradius 40.5195
lwrist 25.7636
lhand -28.1304 19.4766
lfingers 7.12502
lthumb -1.51188 49.451
rfemur -1.6845 7.48095 23.7824
rtibia 18.1724
rfoot -13.0161 -9.07101
rtoes 4.45929
lfemur -0.949859 -3.19952 -22.5328
ltibia 20.2887
lfoot -14.4171 15.602
ltoes -1.12809
4
root 9.45699 17.8445 -0.526701 -3.18822 -3.9244 -0.0552559
lowerback 5.47784 -1.08342 0.803911
upperback 3.3307 -1.40821 0.564443
thorax 0.348421 -0.699719 0.199546
lowerneck -12.9325 -4.66009 -3.879
upperneck 2.80928 -5.81786 3.46552
head 3.46549 -2.78683 1.42696
rclavicle -6.23687e-015 1.15295e-014
rhumerus -31.9396 5.2201 -89.39
rradius 42.6086
rwrist -17.0063
rhand -27.3713 18.5584
rfingers 7.12502
rthumb -0.77872 -11.4199
lclavicle -6.23687e-015 1.15295e-014
lhumerus -32.7895 -1.72247 91.1208
lradius 42.0276
lwrist 26.3663
lhand -27.6526 19.954
lfingers 7.12502
lthumb -1.0504 49.9312
rfemur -1.96498 7.33511 23.0589
rtibia 18.7961
rfoot -13.4438 -8.98152
rtoes 4.87708
lfemur -0.749723 -3.41024 -23.2337
ltibia 19.8047
lfoot -14.2719 15.6415
ltoes -0.504615
5
root 9.46033 17.8475 -0.536502 -3.15636 -3.72044 0.441953
lowerback 5.94221 -1.09387 0.295409
upperback 3.2225 -1.44111 0.421339
thorax -0.0121603 -0.721944 0.35051
lowerneck -12.5058 -4.39477 -4.05717
upperneck 2.47756 -5.46742 3.80908
head 3.27456 -2.60619 1.60902
rclavicle 1.76173e-014 -5.96354e-015
rhumerus -32.2173 6.01486 -89.7663
rradius 43.6281
rwrist -17.3196
rhand -27.5354 18.3463
rfingers 7.12502
rthumb -0.937155 -11.6314
lclavicle 1.76173e-014 -5.96354e-015
lhumerus -32.9547 -2.65691 91.5478
lradius 43.4711
lwrist 26.9132
lhand -27.5652 19.4283
lfingers 7.12502
lthumb -0.96599 49.4059
rfemur -2.26435 7.21626 22.4703
rtibia 19.2585
rfoot -13.6894 -9.06686
rtoes 4.81946
lfemur -0.723538 -3.6133 -23.7856
ltibia 19.4657
lfoot -14.2681 15.6419
ltoes 0.62179
6
root 9.46443 17.8493 -0.555083 -2.95787 -3.5714 0.734412
lowerback 6.23068 -1.08321 0.0160061
upperback 3.20323 -1.44046 0.334328
thorax -0.187371 -0.723943 0.424152
lowerneck -12.3305 -4.14554 -4.1194
upperneck 2.14098 -5.13212 3.93598
head 3.11694 -2.43821 1.69054
rclavicle -1.86361e-014 -5.76476e-015
rhumerus -32.18 6.59357 -90.066
rradius 44.6646
rwrist -17.3578
rhand -27.9051 16.9611
rfingers 7.12502
rthumb -1.29429 -13.0147
lclavicle -1.86361e-014 -5.76476e-015
lhumerus -32.6698 -3.4841 91.8862
lradius 44.6431
lwrist 27.4058
lhand -27.5625 18.4174
lfingers 7.12502
lthumb -0.963341 48.395
rfemur -2.69149 7.1033 22.0907
rtibia 19.4858
rfoot -13.6768 -9.18725
rtoes 4.39707
lfemur -1.04127 -3.73496 -24.1056
ltibia 19.4812
lfoot -14.2391 15.6267
ltoes 0.371248
7
root 9.46665 17.8582 -0.584864 -2.50872 -3.5992 0.44052
lowerback 6.35539 -1.02101 0.390477
upperback 3.21204 -1.3363 0.359037
thorax -0.256103 -0.66789 0.235574
lowerneck -12.6708 -3.96277 -3.63804
upperneck 2.11911 -4.91524 3.38064
head 3.12589 -2.34421 1.42928
rclavicle 4.84538e-015 7.7526e-015
rhumerus -31.8622 7.00869 -90.3711
rradius 45.5918
rwrist -17.1981
rhand -27.9308 16.5211
rfingers 7.12502
rthumb -1.31911 -13.4546
lclavicle 4.84538e-015 7.7526e-015
lhumerus -32.2236 -4.72216 92.1581
lradius 45.8698
lwrist 28.0528
lhand -26.8323 18.6899
lfingers 7.12502
lthumb -0.258087 48.6695
rfemur -3.36856 7.323 22.3743
rtibia 19.6145
rfoot -13.5052 -9.41514
rtoes 4.16643
lfemur -1.73643 -3.64415 -23.7271
ltibia 19.7307
lfoot -14.1628 15.515
ltoes -0.411046
